<svg width="588" height="121" viewBox="0 0 588 121" fill="none" xmlns="http://www.w3.org/2000/svg">
<path d="M195.1 95.3563C195.108 95.4092 195.103 95.463 195.086 95.5137C195.069 95.5643 195.041 95.6103 195.003 95.648C194.965 95.6857 194.919 95.7142 194.868 95.7311C194.818 95.748 194.764 95.7529 194.711 95.7453H180.903C180.882 95.7423 180.86 95.7443 180.84 95.7511C180.82 95.7579 180.801 95.7693 180.786 95.7844C180.771 95.7995 180.76 95.818 180.753 95.8383C180.746 95.8586 180.744 95.8802 180.747 95.9013V104.263C180.744 104.285 180.746 104.306 180.753 104.326C180.76 104.347 180.771 104.365 180.786 104.38C180.801 104.395 180.82 104.407 180.84 104.414C180.86 104.42 180.882 104.422 180.903 104.419H190.394C190.447 104.412 190.501 104.417 190.551 104.434C190.602 104.451 190.648 104.479 190.686 104.517C190.724 104.554 190.752 104.6 190.769 104.651C190.786 104.702 190.791 104.756 190.783 104.808V107.258C190.791 107.311 190.786 107.365 190.769 107.416C190.752 107.466 190.724 107.512 190.686 107.55C190.648 107.588 190.602 107.616 190.551 107.633C190.501 107.65 190.447 107.655 190.394 107.647H180.903C180.882 107.644 180.86 107.646 180.84 107.653C180.82 107.66 180.801 107.671 180.786 107.686C180.771 107.702 180.76 107.72 180.753 107.74C180.746 107.761 180.744 107.782 180.747 107.803V116.36C180.744 116.382 180.746 116.403 180.753 116.423C180.76 116.444 180.771 116.462 180.786 116.477C180.801 116.492 180.82 116.504 180.84 116.511C180.86 116.517 180.882 116.519 180.903 116.516H194.711C194.764 116.509 194.818 116.514 194.868 116.531C194.919 116.548 194.965 116.576 195.003 116.614C195.041 116.651 195.069 116.697 195.086 116.748C195.103 116.799 195.108 116.853 195.1 116.905V119.355C195.108 119.408 195.103 119.462 195.086 119.513C195.069 119.563 195.041 119.609 195.003 119.647C194.965 119.685 194.919 119.713 194.868 119.73C194.818 119.747 194.764 119.752 194.711 119.744H177.403C177.35 119.752 177.296 119.747 177.246 119.73C177.195 119.713 177.149 119.685 177.111 119.647C177.074 119.609 177.045 119.563 177.028 119.513C177.012 119.462 177.007 119.408 177.014 119.355V92.9063C177.007 92.8535 177.012 92.7996 177.028 92.749C177.045 92.6984 177.074 92.6524 177.111 92.6147C177.149 92.5769 177.195 92.5485 177.246 92.5316C177.296 92.5147 177.35 92.5098 177.403 92.5174H194.711C194.764 92.5098 194.818 92.5147 194.868 92.5316C194.919 92.5485 194.965 92.5769 195.003 92.6147C195.041 92.6524 195.069 92.6984 195.086 92.749C195.103 92.7996 195.108 92.8535 195.1 92.9063V95.3563ZM233.645 92.9063C233.638 92.8535 233.643 92.7996 233.659 92.749C233.676 92.6984 233.705 92.6524 233.743 92.6147C233.78 92.5769 233.826 92.5485 233.877 92.5316C233.927 92.5147 233.981 92.5098 234.034 92.5174H236.99C237.043 92.5098 237.097 92.5147 237.147 92.5316C237.198 92.5485 237.244 92.5769 237.282 92.6147C237.32 92.6524 237.348 92.6984 237.365 92.749C237.382 92.7996 237.387 92.8535 237.379 92.9063V119.355C237.387 119.408 237.382 119.462 237.365 119.513C237.348 119.563 237.32 119.609 237.282 119.647C237.244 119.685 237.198 119.713 237.147 119.73C237.097 119.747 237.043 119.752 236.99 119.744H234.151C234.057 119.742 233.965 119.715 233.883 119.668C233.801 119.62 233.733 119.553 233.684 119.472L221.51 99.5963C221.484 99.5183 221.445 99.485 221.393 99.4963C221.341 99.5077 221.315 99.553 221.315 99.6323L221.354 119.352C221.362 119.405 221.357 119.459 221.34 119.51C221.323 119.56 221.295 119.606 221.257 119.644C221.219 119.682 221.173 119.71 221.122 119.727C221.072 119.744 221.018 119.749 220.965 119.741H218.009C217.956 119.749 217.902 119.744 217.852 119.727C217.801 119.71 217.755 119.682 217.717 119.644C217.68 119.606 217.651 119.56 217.634 119.51C217.618 119.459 217.613 119.405 217.62 119.352V92.9033C217.613 92.8505 217.618 92.7967 217.634 92.746C217.651 92.6954 217.68 92.6494 217.717 92.6117C217.755 92.5739 217.801 92.5455 217.852 92.5286C217.902 92.5117 217.956 92.5068 218.009 92.5143H220.887C220.982 92.517 221.074 92.5432 221.155 92.5908C221.237 92.6383 221.305 92.7055 221.354 92.7863L233.489 112.662C233.515 112.74 233.554 112.774 233.606 112.762C233.658 112.751 233.684 112.706 233.684 112.626L233.645 92.9063ZM278.452 92.5174C278.505 92.5098 278.559 92.5147 278.609 92.5316C278.66 92.5485 278.706 92.5769 278.744 92.6147C278.782 92.6524 278.81 92.6984 278.827 92.749C278.844 92.7996 278.849 92.8535 278.841 92.9063V95.3953C278.849 95.4482 278.844 95.502 278.827 95.5527C278.81 95.6033 278.782 95.6493 278.744 95.687C278.706 95.7248 278.66 95.7532 278.609 95.7701C278.559 95.787 278.505 95.7919 278.452 95.7844H270.984C270.963 95.7813 270.941 95.7833 270.921 95.7901C270.901 95.7969 270.882 95.8083 270.867 95.8234C270.852 95.8385 270.841 95.857 270.834 95.8773C270.827 95.8976 270.825 95.9192 270.828 95.9403V119.355C270.836 119.408 270.831 119.462 270.814 119.513C270.797 119.563 270.769 119.609 270.731 119.647C270.693 119.685 270.647 119.713 270.596 119.73C270.546 119.747 270.492 119.752 270.439 119.744H267.483C267.43 119.752 267.376 119.747 267.326 119.73C267.275 119.713 267.229 119.685 267.191 119.647C267.154 119.609 267.125 119.563 267.108 119.513C267.092 119.462 267.087 119.408 267.094 119.355V95.9403C267.097 95.9192 267.095 95.8976 267.088 95.8773C267.082 95.857 267.07 95.8385 267.055 95.8234C267.04 95.8083 267.022 95.7969 267.001 95.7901C266.981 95.7833 266.959 95.7813 266.938 95.7844H259.82C259.767 95.7919 259.713 95.787 259.663 95.7701C259.612 95.7532 259.566 95.7248 259.528 95.687C259.491 95.6493 259.462 95.6033 259.445 95.5527C259.428 95.502 259.424 95.4482 259.431 95.3953V92.9063C259.424 92.8535 259.428 92.7996 259.445 92.749C259.462 92.6984 259.491 92.6524 259.528 92.6147C259.566 92.5769 259.612 92.5485 259.663 92.5316C259.713 92.5147 259.767 92.5098 259.82 92.5174H278.452ZM318.903 95.3563C318.911 95.4092 318.906 95.463 318.889 95.5137C318.872 95.5643 318.844 95.6103 318.806 95.648C318.768 95.6857 318.722 95.7142 318.671 95.7311C318.621 95.748 318.567 95.7529 318.514 95.7453H304.706C304.685 95.7423 304.663 95.7443 304.643 95.7511C304.623 95.7579 304.604 95.7693 304.589 95.7844C304.574 95.7995 304.563 95.818 304.556 95.8383C304.549 95.8586 304.547 95.8802 304.55 95.9013V104.263C304.547 104.285 304.549 104.306 304.556 104.326C304.563 104.347 304.574 104.365 304.589 104.38C304.604 104.395 304.623 104.407 304.643 104.414C304.663 104.42 304.685 104.422 304.706 104.419H314.196C314.249 104.412 314.303 104.417 314.353 104.434C314.404 104.451 314.45 104.479 314.488 104.517C314.526 104.554 314.554 104.6 314.571 104.651C314.588 104.702 314.593 104.756 314.585 104.808V107.258C314.593 107.311 314.588 107.365 314.571 107.416C314.554 107.466 314.526 107.512 314.488 107.55C314.45 107.588 314.404 107.616 314.353 107.633C314.303 107.65 314.249 107.655 314.196 107.647H304.706C304.685 107.644 304.663 107.646 304.643 107.653C304.622 107.659 304.604 107.671 304.589 107.686C304.574 107.701 304.562 107.72 304.555 107.74C304.549 107.76 304.547 107.782 304.55 107.803V116.36C304.547 116.382 304.549 116.403 304.555 116.424C304.562 116.444 304.574 116.463 304.589 116.478C304.604 116.493 304.622 116.504 304.643 116.511C304.663 116.518 304.685 116.52 304.706 116.516H318.514C318.567 116.509 318.621 116.514 318.671 116.531C318.722 116.548 318.768 116.576 318.806 116.614C318.844 116.651 318.872 116.697 318.889 116.748C318.906 116.799 318.911 116.853 318.903 116.905V119.355C318.911 119.408 318.906 119.462 318.889 119.513C318.872 119.563 318.844 119.609 318.806 119.647C318.768 119.685 318.722 119.713 318.671 119.73C318.621 119.747 318.567 119.752 318.514 119.744H301.206C301.153 119.752 301.099 119.747 301.049 119.73C300.998 119.713 300.952 119.685 300.915 119.647C300.877 119.609 300.848 119.563 300.831 119.513C300.815 119.462 300.81 119.408 300.817 119.355V92.9063C300.81 92.8535 300.815 92.7996 300.831 92.749C300.848 92.6984 300.877 92.6524 300.915 92.6147C300.952 92.5769 300.998 92.5485 301.049 92.5316C301.099 92.5147 301.153 92.5098 301.206 92.5174H318.514C318.567 92.5098 318.621 92.5147 318.671 92.5316C318.722 92.5485 318.768 92.5769 318.806 92.6147C318.844 92.6524 318.872 92.6984 318.889 92.749C318.906 92.7996 318.911 92.8535 318.903 92.9063V95.3563ZM356.943 119.743C356.852 119.75 356.761 119.727 356.684 119.678C356.607 119.629 356.548 119.556 356.515 119.471L351.07 107.841C351.062 107.807 351.042 107.776 351.013 107.755C350.985 107.733 350.95 107.723 350.914 107.724H345.314C345.293 107.721 345.271 107.723 345.251 107.73C345.231 107.737 345.212 107.748 345.197 107.763C345.182 107.779 345.171 107.797 345.164 107.817C345.157 107.838 345.155 107.859 345.158 107.88V119.354C345.166 119.407 345.161 119.461 345.144 119.512C345.127 119.562 345.099 119.608 345.061 119.646C345.023 119.684 344.977 119.712 344.926 119.729C344.876 119.746 344.822 119.751 344.769 119.743H341.813C341.76 119.751 341.706 119.746 341.656 119.729C341.605 119.712 341.559 119.684 341.521 119.646C341.484 119.608 341.455 119.562 341.438 119.512C341.422 119.461 341.417 119.407 341.424 119.354V92.9054C341.417 92.8525 341.422 92.7987 341.438 92.748C341.455 92.6974 341.484 92.6514 341.521 92.6137C341.559 92.5759 341.605 92.5475 341.656 92.5306C341.706 92.5137 341.76 92.5088 341.813 92.5163H352.276C353.703 92.4861 355.115 92.8206 356.376 93.4883C357.533 94.1137 358.485 95.0591 359.118 96.2114C359.785 97.4536 360.12 98.8468 360.09 100.256C360.141 101.908 359.642 103.529 358.67 104.865C357.689 106.146 356.293 107.047 354.722 107.413C354.618 107.465 354.592 107.53 354.644 107.607L360.284 119.276C360.312 119.337 360.325 119.404 360.323 119.47C360.323 119.652 360.219 119.742 360.012 119.742L356.943 119.743ZM345.313 95.7434C345.292 95.7403 345.27 95.7423 345.25 95.7491C345.23 95.7559 345.211 95.7673 345.196 95.7824C345.181 95.7975 345.17 95.816 345.163 95.8363C345.156 95.8566 345.154 95.8782 345.157 95.8993V104.612C345.154 104.634 345.156 104.655 345.163 104.675C345.17 104.696 345.181 104.714 345.196 104.729C345.211 104.744 345.23 104.756 345.25 104.763C345.27 104.769 345.292 104.771 345.313 104.768H351.813C352.418 104.797 353.023 104.703 353.591 104.492C354.159 104.282 354.679 103.959 355.119 103.543C355.539 103.117 355.866 102.608 356.08 102.049C356.294 101.49 356.391 100.893 356.364 100.295C356.392 99.6886 356.296 99.0825 356.082 98.5141C355.868 97.9456 355.54 97.4268 355.119 96.9894C354.682 96.5681 354.163 96.2404 353.594 96.0263C353.026 95.8123 352.42 95.7163 351.813 95.7443L345.313 95.7434ZM393.271 92.4764C394.727 92.446 396.166 92.7874 397.452 93.4683C398.634 94.1061 399.606 95.0718 400.252 96.2493C400.932 97.5156 401.273 98.9356 401.244 100.372C401.277 101.799 400.928 103.209 400.233 104.456C399.562 105.62 398.569 106.566 397.374 107.179C396.056 107.848 394.593 108.182 393.115 108.151H386.269C386.248 108.148 386.226 108.15 386.206 108.157C386.186 108.164 386.167 108.175 386.152 108.19C386.137 108.206 386.126 108.224 386.119 108.244C386.112 108.265 386.11 108.286 386.113 108.307V119.353C386.121 119.406 386.116 119.46 386.099 119.511C386.082 119.561 386.054 119.607 386.016 119.645C385.978 119.683 385.932 119.711 385.881 119.728C385.831 119.745 385.777 119.75 385.724 119.742H382.768C382.715 119.75 382.661 119.745 382.611 119.728C382.56 119.711 382.514 119.683 382.476 119.645C382.439 119.607 382.41 119.561 382.393 119.511C382.376 119.46 382.372 119.406 382.379 119.353V92.8653C382.372 92.8125 382.376 92.7586 382.393 92.708C382.41 92.6574 382.439 92.6114 382.476 92.5737C382.514 92.5359 382.56 92.5075 382.611 92.4906C382.661 92.4737 382.715 92.4688 382.768 92.4764H393.271ZM392.765 105.117C393.396 105.146 394.026 105.047 394.617 104.826C395.208 104.606 395.749 104.268 396.207 103.833C396.645 103.389 396.986 102.859 397.21 102.277C397.433 101.695 397.535 101.072 397.507 100.449C397.536 99.8174 397.435 99.1862 397.212 98.5944C396.988 98.0026 396.646 97.4626 396.207 97.0073C395.752 96.5681 395.212 96.2262 394.62 96.0027C394.028 95.7792 393.397 95.6787 392.765 95.7073H386.265C386.244 95.7043 386.222 95.7063 386.202 95.7131C386.182 95.7199 386.163 95.7313 386.148 95.7464C386.133 95.7615 386.122 95.78 386.115 95.8003C386.108 95.8206 386.106 95.8422 386.109 95.8633V104.963C386.106 104.985 386.108 105.006 386.115 105.026C386.122 105.047 386.133 105.065 386.148 105.08C386.163 105.095 386.182 105.107 386.202 105.114C386.222 105.12 386.244 105.122 386.265 105.119L392.765 105.117ZM438.545 119.742C438.454 119.749 438.363 119.726 438.286 119.677C438.209 119.628 438.15 119.555 438.117 119.47L432.672 107.84C432.664 107.806 432.644 107.775 432.615 107.754C432.587 107.732 432.552 107.722 432.516 107.723H426.916C426.895 107.72 426.873 107.722 426.853 107.729C426.833 107.736 426.814 107.747 426.799 107.762C426.784 107.778 426.773 107.796 426.766 107.816C426.759 107.837 426.757 107.858 426.76 107.879V119.353C426.768 119.406 426.763 119.46 426.746 119.511C426.729 119.561 426.701 119.607 426.663 119.645C426.625 119.683 426.579 119.711 426.528 119.728C426.478 119.745 426.424 119.75 426.371 119.742H423.415C423.362 119.75 423.308 119.745 423.258 119.728C423.207 119.711 423.161 119.683 423.123 119.645C423.086 119.607 423.057 119.561 423.04 119.511C423.024 119.46 423.019 119.406 423.026 119.353V92.9043C423.019 92.8515 423.024 92.7976 423.04 92.747C423.057 92.6964 423.086 92.6504 423.123 92.6127C423.161 92.5749 423.207 92.5465 423.258 92.5296C423.308 92.5127 423.362 92.5078 423.415 92.5154H433.878C435.305 92.4851 436.717 92.8196 437.978 93.4874C439.135 94.1127 440.087 95.0581 440.72 96.2103C441.387 97.4526 441.722 98.8458 441.692 100.255C441.743 101.907 441.244 103.528 440.272 104.864C439.291 106.145 437.896 107.046 436.324 107.412C436.22 107.464 436.194 107.529 436.246 107.606L441.886 119.275C441.914 119.336 441.927 119.403 441.925 119.469C441.925 119.651 441.822 119.741 441.614 119.741L438.545 119.742ZM426.915 95.7423C426.894 95.7393 426.872 95.7413 426.852 95.7481C426.832 95.7549 426.813 95.7663 426.798 95.7814C426.783 95.7965 426.772 95.815 426.765 95.8353C426.758 95.8556 426.756 95.8772 426.759 95.8983V104.611C426.756 104.633 426.758 104.654 426.765 104.674C426.772 104.695 426.783 104.713 426.798 104.728C426.813 104.743 426.832 104.755 426.852 104.762C426.872 104.768 426.894 104.77 426.915 104.767H433.415C434.02 104.796 434.625 104.702 435.193 104.491C435.761 104.281 436.281 103.958 436.721 103.542C437.141 103.116 437.468 102.607 437.682 102.048C437.896 101.489 437.993 100.892 437.966 100.294C437.994 99.6876 437.898 99.0815 437.684 98.5131C437.47 97.9447 437.142 97.4259 436.721 96.9883C436.284 96.5671 435.765 96.2394 435.196 96.0253C434.628 95.8113 434.022 95.7153 433.415 95.7434L426.915 95.7423ZM464.605 119.742C464.552 119.75 464.498 119.745 464.448 119.728C464.397 119.711 464.351 119.683 464.314 119.645C464.276 119.607 464.247 119.561 464.23 119.511C464.214 119.46 464.209 119.406 464.216 119.353V92.9043C464.209 92.8515 464.214 92.7976 464.23 92.747C464.247 92.6964 464.276 92.6504 464.314 92.6127C464.351 92.5749 464.397 92.5465 464.448 92.5296C464.498 92.5127 464.552 92.5078 464.605 92.5154H467.561C467.614 92.5078 467.668 92.5127 467.718 92.5296C467.769 92.5465 467.815 92.5749 467.853 92.6127C467.891 92.6504 467.919 92.6964 467.936 92.747C467.953 92.7976 467.958 92.8515 467.95 92.9043V119.353C467.958 119.406 467.953 119.46 467.936 119.511C467.919 119.561 467.891 119.607 467.853 119.645C467.815 119.683 467.769 119.711 467.718 119.728C467.668 119.745 467.614 119.75 467.561 119.742H464.605ZM500.078 120.053C498.302 120.094 496.536 119.777 494.885 119.12C493.526 118.582 492.351 117.663 491.5 116.473C490.698 115.294 490.283 113.894 490.314 112.467V111.339C490.307 111.287 490.311 111.233 490.328 111.182C490.345 111.131 490.374 111.085 490.411 111.048C490.449 111.01 490.495 110.982 490.546 110.965C490.596 110.948 490.65 110.943 490.703 110.95H493.542C493.595 110.943 493.649 110.948 493.699 110.965C493.75 110.982 493.796 111.01 493.834 111.048C493.872 111.085 493.9 111.131 493.917 111.182C493.934 111.233 493.939 111.287 493.931 111.339V112.272C493.927 112.915 494.08 113.55 494.379 114.119C494.677 114.689 495.111 115.177 495.642 115.539C497.03 116.467 498.682 116.918 500.348 116.823C501.786 116.928 503.216 116.529 504.393 115.695C504.833 115.341 505.185 114.89 505.421 114.377C505.657 113.864 505.771 113.304 505.754 112.739C505.773 111.991 505.525 111.26 505.054 110.678C504.482 110.026 503.789 109.491 503.012 109.103C501.742 108.455 500.437 107.878 499.103 107.372C497.566 106.805 496.066 106.142 494.611 105.388C493.536 104.815 492.599 104.011 491.869 103.035C491.112 101.963 490.729 100.671 490.78 99.3593C490.735 98.3573 490.929 97.359 491.345 96.4462C491.761 95.5334 492.387 94.7322 493.172 94.1083C495.049 92.7497 497.335 92.0769 499.648 92.2023C501.383 92.166 503.106 92.4973 504.704 93.1744C506.061 93.7451 507.227 94.6894 508.068 95.8973C508.868 97.0928 509.281 98.5045 509.254 99.9423V100.72C509.262 100.773 509.257 100.827 509.24 100.878C509.223 100.928 509.195 100.974 509.157 101.012C509.119 101.05 509.073 101.078 509.022 101.095C508.972 101.112 508.918 101.117 508.865 101.109H505.948C505.895 101.117 505.841 101.112 505.791 101.095C505.74 101.078 505.694 101.05 505.657 101.012C505.619 100.974 505.59 100.928 505.573 100.878C505.557 100.827 505.552 100.773 505.559 100.72V100.137C505.568 99.4902 505.426 98.8498 505.146 98.2663C504.866 97.6827 504.455 97.1718 503.945 96.7733C502.666 95.8137 501.088 95.3382 499.492 95.4313C498.173 95.3502 496.863 95.6982 495.758 96.4233C495.321 96.7554 494.972 97.1897 494.741 97.6882C494.511 98.1866 494.406 98.734 494.436 99.2824C494.404 100.038 494.638 100.781 495.097 101.382C495.639 102.004 496.309 102.502 497.061 102.841C497.928 103.269 499.257 103.82 501.048 104.494C502.575 105.078 504.068 105.745 505.521 106.494C506.633 107.08 507.603 107.903 508.36 108.906C509.137 109.985 509.534 111.292 509.488 112.621C509.528 113.66 509.322 114.693 508.886 115.636C508.45 116.579 507.796 117.405 506.979 118.047C504.977 119.486 502.542 120.194 500.08 120.054L500.078 120.053ZM549.978 95.3534C549.986 95.4062 549.981 95.46 549.964 95.5107C549.947 95.5613 549.919 95.6073 549.881 95.645C549.843 95.6828 549.797 95.7112 549.746 95.7281C549.696 95.745 549.642 95.7499 549.589 95.7423H535.781C535.76 95.7393 535.738 95.7413 535.718 95.7481C535.698 95.7549 535.679 95.7663 535.664 95.7814C535.649 95.7965 535.638 95.815 535.631 95.8353C535.624 95.8556 535.622 95.8772 535.625 95.8983V104.26C535.622 104.282 535.624 104.303 535.631 104.323C535.638 104.344 535.649 104.362 535.664 104.377C535.679 104.392 535.698 104.404 535.718 104.411C535.738 104.417 535.76 104.419 535.781 104.416H545.271C545.324 104.409 545.378 104.414 545.428 104.431C545.479 104.447 545.525 104.476 545.563 104.514C545.601 104.551 545.629 104.597 545.646 104.648C545.663 104.699 545.668 104.753 545.66 104.805V107.255C545.668 107.308 545.663 107.362 545.646 107.413C545.629 107.463 545.601 107.509 545.563 107.547C545.525 107.585 545.479 107.613 545.428 107.63C545.378 107.647 545.324 107.652 545.271 107.644H535.781C535.76 107.641 535.738 107.643 535.718 107.65C535.698 107.657 535.679 107.668 535.664 107.683C535.649 107.699 535.638 107.717 535.631 107.737C535.624 107.758 535.622 107.779 535.625 107.8V116.357C535.622 116.379 535.624 116.4 535.631 116.42C535.638 116.441 535.649 116.459 535.664 116.474C535.679 116.489 535.698 116.501 535.718 116.508C535.738 116.514 535.76 116.516 535.781 116.513H549.589C549.642 116.506 549.696 116.511 549.746 116.528C549.797 116.545 549.843 116.573 549.881 116.611C549.919 116.648 549.947 116.694 549.964 116.745C549.981 116.796 549.986 116.85 549.978 116.902V119.352C549.986 119.405 549.981 119.459 549.964 119.51C549.947 119.56 549.919 119.606 549.881 119.644C549.843 119.682 549.797 119.71 549.746 119.727C549.696 119.744 549.642 119.749 549.589 119.741H532.281C532.228 119.749 532.174 119.744 532.124 119.727C532.073 119.71 532.027 119.682 531.989 119.644C531.952 119.606 531.923 119.56 531.906 119.51C531.889 119.459 531.885 119.405 531.892 119.352V92.9033C531.885 92.8505 531.889 92.7967 531.906 92.746C531.923 92.6954 531.952 92.6494 531.989 92.6117C532.027 92.5739 532.073 92.5455 532.124 92.5286C532.174 92.5117 532.228 92.5068 532.281 92.5143H549.589C549.642 92.5068 549.696 92.5117 549.746 92.5286C549.797 92.5455 549.843 92.5739 549.881 92.6117C549.919 92.6494 549.947 92.6954 549.964 92.746C549.981 92.7967 549.986 92.8505 549.978 92.9033V95.3534Z" fill="#0F2E4C"/>
<path d="M169.966 73.9031C169.799 73.9287 169.629 73.9183 169.467 73.8726C169.305 73.8269 169.154 73.7469 169.026 73.6381C168.897 73.5293 168.793 73.3942 168.721 73.2419C168.649 73.0895 168.611 72.9235 168.609 72.7551L166.939 62.7341C166.939 62.3861 166.73 62.2121 166.313 62.2121H153.056C152.638 62.2121 152.43 62.3861 152.43 62.7341L150.76 72.7551C150.757 72.9235 150.719 73.0895 150.647 73.2419C150.575 73.3942 150.471 73.5293 150.343 73.6381C150.214 73.7469 150.063 73.8269 149.901 73.8726C149.739 73.9183 149.569 73.9287 149.403 73.9031H137.19C136.285 73.9031 135.937 73.4507 136.146 72.5461L151.49 1.98407C151.502 1.81926 151.548 1.65865 151.623 1.51151C151.698 1.36436 151.802 1.23363 151.928 1.12686C152.055 1.02009 152.201 0.939407 152.358 0.889496C152.516 0.839585 152.682 0.82144 152.847 0.83609H166.939C167.103 0.82144 167.269 0.839585 167.427 0.889496C167.584 0.939407 167.73 1.02009 167.857 1.12686C167.983 1.23363 168.087 1.36436 168.162 1.51151C168.237 1.65865 168.283 1.81926 168.296 1.98407L183.536 72.5461L183.636 72.9641C183.636 73.5901 183.253 73.9031 182.488 73.9031H169.966ZM154.519 50.3081C154.519 50.6561 154.658 50.8301 154.937 50.8301H164.329C164.677 50.8301 164.816 50.6561 164.747 50.3081L159.841 21.8081C159.774 21.5994 159.67 21.4951 159.528 21.4951C159.386 21.4951 159.281 21.5994 159.215 21.8081L154.519 50.3081ZM209.944 74.7381C203.681 74.7381 198.653 72.9461 194.861 69.3621C191.068 65.7781 189.172 60.9934 189.172 55.0081V19.7281C189.172 13.7434 191.068 8.95909 194.861 5.37509C198.653 1.79109 203.681 -0.000915527 209.944 -0.000915527C216.206 -0.000915527 221.251 1.80843 225.079 5.42709C228.906 9.04576 230.82 13.8458 230.82 19.8271V23.7941C230.823 23.959 230.792 24.1228 230.729 24.2754C230.666 24.4279 230.573 24.566 230.455 24.6811C230.339 24.7993 230.201 24.8926 230.049 24.9554C229.896 25.0182 229.733 25.049 229.568 25.0461H217.355C217.19 25.049 217.026 25.0182 216.873 24.9554C216.721 24.8926 216.583 24.7993 216.468 24.6811C216.349 24.566 216.256 24.4279 216.193 24.2754C216.13 24.1228 216.1 23.959 216.103 23.7941V19.6191C216.188 17.7834 215.594 15.9806 214.433 14.5561C213.877 13.9179 213.186 13.413 212.409 13.0787C211.632 12.7444 210.79 12.5894 209.945 12.6251C209.116 12.5967 208.291 12.7555 207.532 13.0898C206.773 13.4241 206.099 13.9253 205.561 14.5561C204.4 15.9806 203.805 17.7834 203.891 19.6191V55.1091C203.805 56.9448 204.4 58.7476 205.561 60.1721C206.099 60.8028 206.773 61.304 207.532 61.6383C208.291 61.9727 209.116 62.1315 209.945 62.1031C210.79 62.1388 211.632 61.9838 212.409 61.6495C213.186 61.3152 213.877 60.8102 214.433 60.1721C215.593 58.7478 216.188 56.9454 216.103 55.1101V46.7591C216.113 46.6882 216.106 46.6158 216.084 46.5479C216.061 46.4799 216.023 46.4181 215.972 46.3674C215.922 46.3167 215.86 46.2786 215.792 46.256C215.724 46.2333 215.651 46.2269 215.581 46.2371H210.988C210.823 46.24 210.659 46.2092 210.506 46.1464C210.354 46.0836 210.216 45.9902 210.101 45.8721C209.982 45.757 209.889 45.6189 209.826 45.4664C209.763 45.3138 209.733 45.15 209.736 44.9851V35.6951C209.733 35.5301 209.763 35.3664 209.826 35.2138C209.889 35.0613 209.982 34.9232 210.101 34.8081C210.216 34.6899 210.354 34.5966 210.506 34.5338C210.659 34.471 210.823 34.4401 210.988 34.4431H229.568C229.733 34.4401 229.896 34.471 230.049 34.5338C230.201 34.5966 230.339 34.6899 230.455 34.8081C230.573 34.9232 230.666 35.0613 230.729 35.2138C230.792 35.3664 230.823 35.5301 230.82 35.6951V55.0081C230.82 60.9928 228.906 65.7771 225.079 69.3611C221.251 72.9451 216.206 74.7374 209.944 74.7381ZM270.381 73.9031C270.052 73.933 269.724 73.8441 269.456 73.6525C269.188 73.4609 268.998 73.1793 268.92 72.8591L260.883 44.0501C260.743 43.7714 260.569 43.6321 260.361 43.6321H256.812C256.741 43.6219 256.668 43.6283 256.6 43.6509C256.532 43.6736 256.471 43.7117 256.42 43.7624C256.369 43.8131 256.331 43.8749 256.308 43.9428C256.286 44.0108 256.279 44.0832 256.29 44.1541V72.6541C256.293 72.819 256.262 72.9828 256.199 73.1353C256.136 73.2879 256.043 73.426 255.925 73.5411C255.809 73.6593 255.671 73.7526 255.519 73.8154C255.366 73.8782 255.203 73.909 255.038 73.9061H242.824C242.659 73.909 242.495 73.8782 242.342 73.8154C242.19 73.7526 242.052 73.6593 241.937 73.5411C241.818 73.426 241.725 73.2879 241.662 73.1353C241.599 72.9828 241.569 72.819 241.572 72.6541V2.08807C241.569 1.92314 241.599 1.75936 241.662 1.60681C241.725 1.45426 241.818 1.31617 241.937 1.20108C242.052 1.0829 242.19 0.989533 242.342 0.926758C242.495 0.863983 242.659 0.833142 242.824 0.83609H263.909C267.511 0.774893 271.057 1.73379 274.138 3.60208C277.152 5.47088 279.563 8.17124 281.079 11.3781C282.768 14.9659 283.608 18.895 283.532 22.8601C283.609 26.6128 282.805 30.3313 281.183 33.7161C279.736 36.715 277.475 39.2469 274.659 41.0231C274.533 41.0811 274.425 41.1711 274.346 41.2841C274.311 41.3388 274.293 41.402 274.293 41.4666C274.293 41.5311 274.311 41.5944 274.346 41.6491L283.946 72.4421L284.046 72.8591C284.046 73.5551 283.663 73.9031 282.898 73.9031H270.381ZM256.811 13.4661C256.74 13.4559 256.667 13.4623 256.599 13.485C256.531 13.5076 256.47 13.5457 256.419 13.5964C256.368 13.6471 256.33 13.7088 256.307 13.7768C256.285 13.8448 256.278 13.9171 256.289 13.9881V31.8371C256.278 31.908 256.285 31.9803 256.307 32.0483C256.33 32.1163 256.368 32.1781 256.419 32.2288C256.47 32.2794 256.531 32.3176 256.599 32.3402C256.667 32.3628 256.74 32.3693 256.811 32.3591H261.511C262.529 32.3809 263.538 32.1604 264.454 31.7159C265.371 31.2713 266.168 30.6154 266.782 29.8021C268.224 27.8241 268.943 25.4101 268.817 22.9651C268.952 20.4867 268.234 18.0367 266.782 16.0241C266.168 15.2108 265.371 14.5549 264.454 14.1103C263.538 13.6657 262.529 13.4453 261.511 13.4671L256.811 13.4661ZM313.386 74.7381C306.986 74.7381 301.871 72.8591 298.042 69.1011C294.212 65.3431 292.299 60.3327 292.301 54.0701V20.6701C292.301 14.4074 294.214 9.39707 298.042 5.63907C301.869 1.88107 306.984 0.0020752 313.386 0.0020752C319.786 0.0020752 324.919 1.88107 328.786 5.63907C332.652 9.39707 334.583 14.4074 334.579 20.6701V54.0701C334.579 60.3327 332.648 65.3431 328.786 69.1011C324.924 72.8591 319.79 74.7381 313.386 74.7381ZM313.386 62.1081C314.271 62.142 315.153 61.9767 315.967 61.6245C316.78 61.2724 317.504 60.7422 318.086 60.0731C319.322 58.5623 319.954 56.6469 319.86 54.6971V20.0421C319.954 18.0923 319.322 16.1768 318.086 14.6661C317.504 13.997 316.78 13.4668 315.967 13.1146C315.153 12.7624 314.271 12.5972 313.386 12.6311C312.507 12.5942 311.633 12.7583 310.828 13.111C310.023 13.4637 309.309 13.9956 308.741 14.6661C307.536 16.1909 306.924 18.1002 307.019 20.0411V54.6961C306.924 56.6373 307.536 58.547 308.741 60.0721C309.309 60.7429 310.023 61.275 310.828 61.6279C311.633 61.9808 312.507 62.145 313.386 62.1081ZM387.286 53.7571C387.286 60.2291 385.337 65.2048 381.441 68.6841C377.544 72.1634 372.499 73.9031 366.306 73.9031H346.58C346.415 73.906 346.251 73.8752 346.098 73.8124C345.946 73.7496 345.808 73.6563 345.693 73.5381C345.574 73.423 345.481 73.2849 345.418 73.1324C345.355 72.9798 345.325 72.816 345.328 72.6511V2.08807C345.325 1.92314 345.355 1.75936 345.418 1.60681C345.481 1.45426 345.574 1.31617 345.693 1.20108C345.808 1.0829 345.946 0.989533 346.098 0.926758C346.251 0.863983 346.415 0.833142 346.58 0.83609H364.012C370.97 0.83609 376.416 2.50607 380.348 5.84607C384.28 9.18607 386.246 14.1617 386.248 20.7731C386.248 27.6624 383.881 32.6727 379.148 35.8041C378.869 36.0127 378.836 36.2214 379.048 36.4301C384.542 40.3268 387.29 46.1024 387.29 53.7571H387.286ZM360.564 13.4651C360.493 13.4549 360.42 13.4613 360.352 13.4839C360.284 13.5066 360.223 13.5447 360.172 13.5954C360.121 13.6461 360.083 13.7079 360.06 13.7758C360.038 13.8438 360.031 13.9162 360.042 13.9871V30.3751C360.031 30.446 360.038 30.5183 360.06 30.5863C360.083 30.6543 360.121 30.7161 360.172 30.7668C360.223 30.8174 360.284 30.8556 360.352 30.8782C360.42 30.9008 360.493 30.9073 360.564 30.8971H364.322C365.352 30.954 366.382 30.7823 367.339 30.3944C368.295 30.0064 369.154 29.4118 369.854 28.6531C371.273 26.866 371.98 24.6159 371.837 22.3381C371.837 19.4847 371.193 17.2928 369.906 15.7621C369.211 14.9796 368.347 14.3658 367.379 13.9673C366.412 13.5688 365.366 13.396 364.322 13.4621L360.564 13.4651ZM365.157 61.1651C366.195 61.2085 367.229 61.0039 368.173 60.5683C369.117 60.1327 369.944 59.4786 370.585 58.6601C371.907 56.9901 372.568 54.6234 372.568 51.5601C372.703 48.9752 372.008 46.4148 370.585 44.2531C369.994 43.3929 369.197 42.6941 368.267 42.2202C367.337 41.7462 366.304 41.5121 365.261 41.5391H360.561C360.49 41.5289 360.417 41.5353 360.349 41.558C360.281 41.5806 360.22 41.6187 360.169 41.6694C360.118 41.7201 360.08 41.7819 360.057 41.8499C360.035 41.9178 360.028 41.9902 360.039 42.0611V60.6411C360.028 60.712 360.035 60.7843 360.057 60.8523C360.08 60.9203 360.118 60.9821 360.169 61.0328C360.22 61.0834 360.281 61.1216 360.349 61.1442C360.417 61.1668 360.49 61.1733 360.561 61.1631L365.157 61.1651ZM425.803 73.9001C425.474 73.9301 425.146 73.8411 424.878 73.6495C424.61 73.4579 424.42 73.1763 424.342 72.8561L416.305 44.0471C416.165 43.7684 415.991 43.6291 415.783 43.6291H412.234C412.163 43.6189 412.09 43.6253 412.022 43.6479C411.954 43.6706 411.893 43.7087 411.842 43.7594C411.791 43.8101 411.753 43.8719 411.73 43.9398C411.708 44.0078 411.701 44.0802 411.712 44.1511V72.6511C411.715 72.816 411.684 72.9798 411.621 73.1324C411.558 73.2849 411.465 73.423 411.347 73.5381C411.232 73.6563 411.093 73.7496 410.941 73.8124C410.788 73.8752 410.625 73.906 410.46 73.9031H398.25C398.085 73.906 397.921 73.8752 397.768 73.8124C397.616 73.7496 397.478 73.6563 397.363 73.5381C397.244 73.423 397.151 73.2849 397.088 73.1324C397.026 72.9798 396.995 72.816 396.998 72.6511V2.08807C396.995 1.92314 397.026 1.75936 397.088 1.60681C397.151 1.45426 397.244 1.31617 397.363 1.20108C397.478 1.0829 397.616 0.989533 397.768 0.926758C397.921 0.863983 398.085 0.833142 398.25 0.83609H419.335C422.937 0.774893 426.483 1.73379 429.564 3.60208C432.578 5.47088 434.989 8.17124 436.505 11.3781C438.194 14.9659 439.034 18.895 438.958 22.8601C439.035 26.6128 438.231 30.3313 436.609 33.7161C435.162 36.715 432.901 39.2469 430.085 41.0231C429.959 41.0811 429.851 41.1711 429.772 41.2841C429.737 41.3388 429.719 41.402 429.719 41.4666C429.719 41.5311 429.737 41.5944 429.772 41.6491L439.372 72.4421L439.472 72.8591C439.472 73.5551 439.089 73.9031 438.324 73.9031L425.803 73.9001ZM412.233 13.4631C412.162 13.4529 412.089 13.4593 412.021 13.482C411.953 13.5046 411.892 13.5427 411.841 13.5934C411.79 13.6441 411.752 13.7058 411.729 13.7738C411.707 13.8418 411.7 13.9142 411.711 13.9851V31.8341C411.7 31.905 411.707 31.9773 411.729 32.0453C411.752 32.1133 411.79 32.1751 411.841 32.2258C411.892 32.2764 411.953 32.3146 412.021 32.3372C412.089 32.3598 412.162 32.3663 412.233 32.3561H416.933C417.951 32.3779 418.96 32.1574 419.876 31.7129C420.793 31.2683 421.59 30.6124 422.204 29.7991C423.646 27.8211 424.365 25.4071 424.239 22.9621C424.374 20.4837 423.656 18.0337 422.204 16.0211C421.59 15.2078 420.793 14.5519 419.876 14.1073C418.96 13.6627 417.951 13.4423 416.933 13.4641L412.233 13.4631ZM479.977 73.9001C479.81 73.9257 479.64 73.9153 479.478 73.8696C479.316 73.8239 479.165 73.7439 479.037 73.6351C478.908 73.5263 478.804 73.3912 478.732 73.2389C478.66 73.0865 478.622 72.9205 478.62 72.7521L476.95 62.7311C476.95 62.3831 476.741 62.2091 476.324 62.2091H463.071C462.653 62.2091 462.445 62.3831 462.445 62.7311L460.775 72.7521C460.772 72.9205 460.734 73.0865 460.662 73.2389C460.59 73.3912 460.486 73.5263 460.358 73.6351C460.229 73.7439 460.078 73.8239 459.916 73.8696C459.754 73.9153 459.584 73.9257 459.418 73.9001H447.205C446.3 73.9001 445.952 73.4478 446.161 72.5431L461.505 1.98108C461.517 1.81627 461.563 1.65566 461.638 1.50851C461.714 1.36137 461.817 1.23061 461.943 1.12384C462.07 1.01707 462.216 0.936416 462.373 0.886505C462.531 0.836594 462.697 0.818419 462.862 0.833069H476.954C477.118 0.818419 477.284 0.836594 477.442 0.886505C477.599 0.936416 477.746 1.01707 477.872 1.12384C477.998 1.23061 478.102 1.36137 478.177 1.50851C478.252 1.65566 478.298 1.81627 478.311 1.98108L493.551 72.5431L493.651 72.9611C493.651 73.5871 493.268 73.9001 492.503 73.9001H479.977ZM464.532 50.3081C464.532 50.6561 464.671 50.8301 464.95 50.8301H474.344C474.692 50.8301 474.831 50.6561 474.762 50.3081L469.856 21.8081C469.789 21.5994 469.685 21.4951 469.543 21.4951C469.401 21.4951 469.296 21.5994 469.23 21.8081L464.532 50.3081ZM508.373 73.8981C508.208 73.9123 508.043 73.894 507.886 73.8441C507.729 73.7943 507.584 73.7139 507.458 73.6076C507.332 73.5013 507.228 73.3711 507.153 73.2247C507.078 73.0782 507.032 72.9183 507.019 72.7541L492.089 2.19208L491.989 1.77509C491.989 1.14909 492.371 0.83609 493.137 0.83609H506.602C506.768 0.810475 506.938 0.82087 507.1 0.866577C507.262 0.912285 507.413 0.992236 507.542 1.10104C507.67 1.20985 507.774 1.34498 507.846 1.49731C507.918 1.64965 507.956 1.81562 507.959 1.98407L515.159 47.9121C515.225 48.1907 515.33 48.3301 515.472 48.3301C515.614 48.3301 515.718 48.1907 515.785 47.9121L522.779 1.98407C522.781 1.81562 522.819 1.64965 522.891 1.49731C522.963 1.34498 523.067 1.20985 523.196 1.10104C523.324 0.992236 523.475 0.912285 523.637 0.866577C523.799 0.82087 523.969 0.810475 524.136 0.83609H537.184C538.088 0.83609 538.436 1.28842 538.228 2.19308L523.197 72.7551C523.184 72.9199 523.138 73.0805 523.063 73.2277C522.988 73.3748 522.884 73.5055 522.758 73.6123C522.632 73.7191 522.485 73.7998 522.328 73.8497C522.17 73.8996 522.004 73.9177 521.84 73.9031L508.373 73.8981ZM566.096 74.7331C559.696 74.7331 554.581 72.8541 550.752 69.0961C546.922 65.3381 545.009 60.3278 545.011 54.0651V20.6651C545.011 14.4024 546.924 9.39209 550.752 5.63409C554.579 1.87609 559.694 -0.00292969 566.096 -0.00292969C572.496 -0.00292969 577.629 1.87609 581.496 5.63409C585.362 9.39209 587.293 14.4024 587.289 20.6651V54.0651C587.289 60.3278 585.358 65.3381 581.496 69.0961C577.634 72.8541 572.5 74.7347 566.096 74.7381V74.7331ZM566.096 62.1031C566.981 62.137 567.863 61.9718 568.677 61.6196C569.49 61.2674 570.214 60.7372 570.796 60.0681C572.032 58.5575 572.665 56.642 572.571 54.6921V20.0371C572.665 18.0872 572.032 16.1717 570.796 14.6611C570.214 13.992 569.49 13.4618 568.677 13.1096C567.863 12.7574 566.981 12.5922 566.096 12.6261C565.217 12.5892 564.343 12.7533 563.538 13.106C562.733 13.4587 562.019 13.9906 561.451 14.6611C560.246 16.1861 559.634 18.0959 559.729 20.0371V54.6921C559.634 56.6333 560.246 58.543 561.451 60.0681C562.018 60.7395 562.732 61.2723 563.537 61.6259C564.342 61.9794 565.217 62.1444 566.096 62.1081V62.1031Z" fill="#0F2E4C"/>
<path d="M118.264 56.1689C109.28 52.4707 99.9676 49.6279 90.45 47.6787C80.1448 45.5775 69.6541 44.52 59.137 44.5225C48.6191 44.5196 38.1278 45.5772 27.822 47.6787C18.3015 49.6282 8.98601 52.471 -0.000976562 56.1689V5.10059C-0.000977726 4.01424 0.430152 2.97283 1.19775 2.2041C1.96536 1.43537 3.00667 1.00257 4.09302 1.00098H114.167C115.253 1.00257 116.295 1.43537 117.062 2.2041C117.83 2.97283 118.261 4.01424 118.261 5.10059V56.1709L118.264 56.1689ZM24.7871 11.5L21.105 21.3369L10.625 21.8037L18.8311 28.3496L16.031 38.4766L24.783 32.6846L33.5349 38.4766L30.7351 28.3496L38.9409 21.8037L28.4609 21.3369L24.7871 11.5ZM83.231 21.8389L81.887 25.6094L78.061 25.79L81.0549 28.2979L80.0371 32.1797L83.23 29.9619L86.4241 32.1797L85.406 28.2979L88.3999 25.79L84.574 25.6094L83.231 21.8389ZM58.5039 11.5L56.2251 17.7295L49.738 18.0293L54.8181 22.1748L53.0881 28.5859L58.5039 24.9209L63.9231 28.5859L62.1931 22.1748L67.2729 18.0293L60.7839 17.7295L58.5039 11.5ZM104.361 11.9473L103.017 15.5537L99.1909 15.7256L102.185 18.126L101.164 21.8379L104.364 19.7168L107.558 21.8379L106.537 18.126L109.537 15.7256L105.711 15.5537L104.361 11.9473Z" fill="#0F2E4C"/>
<path d="M114.17 119.137H69.631C80.8223 109.757 93.3467 102.095 106.793 96.4019C110.541 94.8169 114.4 93.3729 118.265 92.1079V115.041C118.264 116.127 117.832 117.168 117.065 117.936C116.297 118.704 115.256 119.136 114.17 119.137ZM57.317 119.137H4.09902C3.01164 119.137 1.96878 118.705 1.19989 117.936C0.430986 117.167 -0.000976562 116.124 -0.000976562 115.037V104.05C1.30802 103.101 2.64402 102.166 3.97102 101.27C20.2286 90.3319 38.5013 82.7404 57.7235 78.938C76.9456 75.1356 96.7324 75.1984 115.93 79.1229C116.721 79.2849 117.506 79.4529 118.264 79.6229V83.5169C103.683 88.0095 89.8481 94.6378 77.21 103.186C70.1568 107.954 63.5038 113.288 57.317 119.137ZM-0.000976562 94.0679V64.9409C0.625023 64.6659 1.24402 64.3999 1.83902 64.1479C10.7434 60.384 19.9985 57.511 29.469 55.5709C49.0441 51.5845 69.2219 51.5845 88.797 55.5709C98.2671 57.5112 107.522 60.3842 116.426 64.1479C117.026 64.3999 117.64 64.6669 118.265 64.9409V71.2409L117.582 71.0999C96.9178 66.8915 75.6173 66.8915 54.953 71.0999C35.319 75.1196 16.6544 82.9212 -0.000976562 94.0679Z" fill="#E13736"/>
</svg>
