<svg width="588" height="121" viewBox="0 0 588 121" fill="none" xmlns="http://www.w3.org/2000/svg">
<g clip-path="url(#clip0_187_6)">
<path d="M195.101 95.3563C195.109 95.4092 195.104 95.463 195.087 95.5137C195.07 95.5643 195.042 95.6103 195.004 95.648C194.966 95.6857 194.92 95.7142 194.869 95.7311C194.819 95.748 194.765 95.7529 194.712 95.7453H180.904C180.883 95.7423 180.861 95.7443 180.841 95.7511C180.821 95.7579 180.802 95.7693 180.787 95.7844C180.772 95.7995 180.761 95.818 180.754 95.8383C180.747 95.8586 180.745 95.8802 180.748 95.9013V104.263C180.745 104.285 180.747 104.306 180.754 104.326C180.761 104.347 180.772 104.365 180.787 104.38C180.802 104.395 180.821 104.407 180.841 104.414C180.861 104.42 180.883 104.422 180.904 104.419H190.395C190.448 104.412 190.502 104.417 190.552 104.434C190.603 104.451 190.649 104.479 190.687 104.517C190.725 104.554 190.753 104.6 190.77 104.651C190.787 104.702 190.792 104.756 190.784 104.808V107.258C190.792 107.311 190.787 107.365 190.77 107.416C190.753 107.466 190.725 107.512 190.687 107.55C190.649 107.588 190.603 107.616 190.552 107.633C190.502 107.65 190.448 107.655 190.395 107.647H180.904C180.883 107.644 180.861 107.646 180.841 107.653C180.821 107.66 180.802 107.671 180.787 107.686C180.772 107.702 180.761 107.72 180.754 107.74C180.747 107.761 180.745 107.782 180.748 107.803V116.36C180.745 116.382 180.747 116.403 180.754 116.423C180.761 116.444 180.772 116.462 180.787 116.477C180.802 116.492 180.821 116.504 180.841 116.511C180.861 116.517 180.883 116.519 180.904 116.516H194.712C194.765 116.509 194.819 116.514 194.869 116.531C194.92 116.548 194.966 116.576 195.004 116.614C195.042 116.651 195.07 116.697 195.087 116.748C195.104 116.799 195.109 116.853 195.101 116.905V119.355C195.109 119.408 195.104 119.462 195.087 119.513C195.07 119.563 195.042 119.609 195.004 119.647C194.966 119.685 194.92 119.713 194.869 119.73C194.819 119.747 194.765 119.752 194.712 119.744H177.404C177.351 119.752 177.297 119.747 177.247 119.73C177.196 119.713 177.15 119.685 177.112 119.647C177.075 119.609 177.046 119.563 177.029 119.513C177.013 119.462 177.008 119.408 177.015 119.355V92.9063C177.008 92.8535 177.013 92.7996 177.029 92.749C177.046 92.6984 177.075 92.6524 177.112 92.6147C177.15 92.5769 177.196 92.5485 177.247 92.5316C177.297 92.5147 177.351 92.5098 177.404 92.5174H194.712C194.765 92.5098 194.819 92.5147 194.869 92.5316C194.92 92.5485 194.966 92.5769 195.004 92.6147C195.042 92.6524 195.07 92.6984 195.087 92.749C195.104 92.7996 195.109 92.8535 195.101 92.9063V95.3563ZM233.646 92.9063C233.639 92.8535 233.644 92.7996 233.66 92.749C233.677 92.6984 233.706 92.6524 233.744 92.6147C233.781 92.5769 233.827 92.5485 233.878 92.5316C233.928 92.5147 233.982 92.5098 234.035 92.5174H236.991C237.044 92.5098 237.098 92.5147 237.148 92.5316C237.199 92.5485 237.245 92.5769 237.283 92.6147C237.321 92.6524 237.349 92.6984 237.366 92.749C237.383 92.7996 237.388 92.8535 237.38 92.9063V119.355C237.388 119.408 237.383 119.462 237.366 119.513C237.349 119.563 237.321 119.609 237.283 119.647C237.245 119.685 237.199 119.713 237.148 119.73C237.098 119.747 237.044 119.752 236.991 119.744H234.152C234.058 119.742 233.966 119.715 233.884 119.668C233.802 119.62 233.734 119.553 233.685 119.472L221.511 99.5963C221.485 99.5183 221.446 99.485 221.394 99.4963C221.342 99.5077 221.316 99.553 221.316 99.6323L221.355 119.352C221.363 119.405 221.358 119.459 221.341 119.51C221.324 119.56 221.296 119.606 221.258 119.644C221.22 119.682 221.174 119.71 221.123 119.727C221.073 119.744 221.019 119.749 220.966 119.741H218.01C217.957 119.749 217.903 119.744 217.853 119.727C217.802 119.71 217.756 119.682 217.718 119.644C217.681 119.606 217.652 119.56 217.635 119.51C217.619 119.459 217.614 119.405 217.621 119.352V92.9033C217.614 92.8505 217.619 92.7967 217.635 92.746C217.652 92.6954 217.681 92.6494 217.718 92.6117C217.756 92.5739 217.802 92.5455 217.853 92.5286C217.903 92.5117 217.957 92.5068 218.01 92.5143H220.888C220.983 92.517 221.075 92.5432 221.156 92.5908C221.238 92.6383 221.306 92.7055 221.355 92.7863L233.49 112.662C233.516 112.74 233.555 112.774 233.607 112.762C233.659 112.751 233.685 112.706 233.685 112.626L233.646 92.9063ZM278.453 92.5174C278.506 92.5098 278.56 92.5147 278.61 92.5316C278.661 92.5485 278.707 92.5769 278.745 92.6147C278.783 92.6524 278.811 92.6984 278.828 92.749C278.845 92.7996 278.85 92.8535 278.842 92.9063V95.3953C278.85 95.4482 278.845 95.502 278.828 95.5527C278.811 95.6033 278.783 95.6493 278.745 95.687C278.707 95.7248 278.661 95.7532 278.61 95.7701C278.56 95.787 278.506 95.7919 278.453 95.7844H270.985C270.964 95.7813 270.942 95.7833 270.922 95.7901C270.902 95.7969 270.883 95.8083 270.868 95.8234C270.853 95.8385 270.842 95.857 270.835 95.8773C270.828 95.8976 270.826 95.9192 270.829 95.9403V119.355C270.837 119.408 270.832 119.462 270.815 119.513C270.798 119.563 270.77 119.609 270.732 119.647C270.694 119.685 270.648 119.713 270.597 119.73C270.547 119.747 270.493 119.752 270.44 119.744H267.484C267.431 119.752 267.377 119.747 267.327 119.73C267.276 119.713 267.23 119.685 267.192 119.647C267.155 119.609 267.126 119.563 267.109 119.513C267.093 119.462 267.088 119.408 267.095 119.355V95.9403C267.098 95.9192 267.096 95.8976 267.089 95.8773C267.083 95.857 267.071 95.8385 267.056 95.8234C267.041 95.8083 267.023 95.7969 267.002 95.7901C266.982 95.7833 266.96 95.7813 266.939 95.7844H259.821C259.768 95.7919 259.714 95.787 259.664 95.7701C259.613 95.7532 259.567 95.7248 259.529 95.687C259.492 95.6493 259.463 95.6033 259.446 95.5527C259.429 95.502 259.425 95.4482 259.432 95.3953V92.9063C259.425 92.8535 259.429 92.7996 259.446 92.749C259.463 92.6984 259.492 92.6524 259.529 92.6147C259.567 92.5769 259.613 92.5485 259.664 92.5316C259.714 92.5147 259.768 92.5098 259.821 92.5174H278.453ZM318.904 95.3563C318.912 95.4092 318.907 95.463 318.89 95.5137C318.873 95.5643 318.845 95.6103 318.807 95.648C318.769 95.6857 318.723 95.7142 318.672 95.7311C318.622 95.748 318.568 95.7529 318.515 95.7453H304.707C304.686 95.7423 304.664 95.7443 304.644 95.7511C304.624 95.7579 304.605 95.7693 304.59 95.7844C304.575 95.7995 304.564 95.818 304.557 95.8383C304.55 95.8586 304.548 95.8802 304.551 95.9013V104.263C304.548 104.285 304.55 104.306 304.557 104.326C304.564 104.347 304.575 104.365 304.59 104.38C304.605 104.395 304.624 104.407 304.644 104.414C304.664 104.42 304.686 104.422 304.707 104.419H314.197C314.25 104.412 314.304 104.417 314.354 104.434C314.405 104.451 314.451 104.479 314.489 104.517C314.527 104.554 314.555 104.6 314.572 104.651C314.589 104.702 314.594 104.756 314.586 104.808V107.258C314.594 107.311 314.589 107.365 314.572 107.416C314.555 107.466 314.527 107.512 314.489 107.55C314.451 107.588 314.405 107.616 314.354 107.633C314.304 107.65 314.25 107.655 314.197 107.647H304.707C304.686 107.644 304.664 107.646 304.644 107.653C304.623 107.659 304.605 107.671 304.59 107.686C304.575 107.701 304.563 107.72 304.556 107.74C304.55 107.76 304.548 107.782 304.551 107.803V116.36C304.548 116.382 304.55 116.403 304.556 116.424C304.563 116.444 304.575 116.463 304.59 116.478C304.605 116.493 304.623 116.504 304.644 116.511C304.664 116.518 304.686 116.52 304.707 116.516H318.515C318.568 116.509 318.622 116.514 318.672 116.531C318.723 116.548 318.769 116.576 318.807 116.614C318.845 116.651 318.873 116.697 318.89 116.748C318.907 116.799 318.912 116.853 318.904 116.905V119.355C318.912 119.408 318.907 119.462 318.89 119.513C318.873 119.563 318.845 119.609 318.807 119.647C318.769 119.685 318.723 119.713 318.672 119.73C318.622 119.747 318.568 119.752 318.515 119.744H301.207C301.154 119.752 301.1 119.747 301.05 119.73C300.999 119.713 300.953 119.685 300.916 119.647C300.878 119.609 300.849 119.563 300.832 119.513C300.816 119.462 300.811 119.408 300.818 119.355V92.9063C300.811 92.8535 300.816 92.7996 300.832 92.749C300.849 92.6984 300.878 92.6524 300.916 92.6147C300.953 92.5769 300.999 92.5485 301.05 92.5316C301.1 92.5147 301.154 92.5098 301.207 92.5174H318.515C318.568 92.5098 318.622 92.5147 318.672 92.5316C318.723 92.5485 318.769 92.5769 318.807 92.6147C318.845 92.6524 318.873 92.6984 318.89 92.749C318.907 92.7996 318.912 92.8535 318.904 92.9063V95.3563ZM356.944 119.743C356.853 119.75 356.762 119.727 356.685 119.678C356.608 119.629 356.549 119.556 356.516 119.471L351.071 107.841C351.063 107.807 351.043 107.776 351.014 107.755C350.986 107.733 350.951 107.723 350.915 107.724H345.315C345.294 107.721 345.272 107.723 345.252 107.73C345.232 107.737 345.213 107.748 345.198 107.763C345.183 107.779 345.172 107.797 345.165 107.817C345.158 107.838 345.156 107.859 345.159 107.88V119.354C345.167 119.407 345.162 119.461 345.145 119.512C345.128 119.562 345.1 119.608 345.062 119.646C345.024 119.684 344.978 119.712 344.927 119.729C344.877 119.746 344.823 119.751 344.77 119.743H341.814C341.761 119.751 341.707 119.746 341.657 119.729C341.606 119.712 341.56 119.684 341.522 119.646C341.485 119.608 341.456 119.562 341.439 119.512C341.423 119.461 341.418 119.407 341.425 119.354V92.9054C341.418 92.8525 341.423 92.7987 341.439 92.748C341.456 92.6974 341.485 92.6514 341.522 92.6137C341.56 92.5759 341.606 92.5475 341.657 92.5306C341.707 92.5137 341.761 92.5088 341.814 92.5163H352.277C353.704 92.4861 355.116 92.8206 356.377 93.4883C357.534 94.1137 358.486 95.0591 359.119 96.2114C359.786 97.4536 360.121 98.8468 360.091 100.256C360.142 101.908 359.643 103.529 358.671 104.865C357.69 106.146 356.294 107.047 354.723 107.413C354.619 107.465 354.593 107.53 354.645 107.607L360.285 119.276C360.313 119.337 360.326 119.404 360.324 119.47C360.324 119.652 360.22 119.742 360.013 119.742L356.944 119.743ZM345.314 95.7434C345.293 95.7403 345.271 95.7423 345.251 95.7491C345.231 95.7559 345.212 95.7673 345.197 95.7824C345.182 95.7975 345.171 95.816 345.164 95.8363C345.157 95.8566 345.155 95.8782 345.158 95.8993V104.612C345.155 104.634 345.157 104.655 345.164 104.675C345.171 104.696 345.182 104.714 345.197 104.729C345.212 104.744 345.231 104.756 345.251 104.763C345.271 104.769 345.293 104.771 345.314 104.768H351.814C352.419 104.797 353.024 104.703 353.592 104.492C354.16 104.282 354.68 103.959 355.12 103.543C355.54 103.117 355.867 102.608 356.081 102.049C356.295 101.49 356.392 100.893 356.365 100.295C356.393 99.6886 356.297 99.0825 356.083 98.5141C355.869 97.9456 355.541 97.4268 355.12 96.9894C354.683 96.5681 354.164 96.2404 353.595 96.0263C353.027 95.8123 352.421 95.7163 351.814 95.7443L345.314 95.7434ZM393.272 92.4764C394.728 92.446 396.167 92.7874 397.453 93.4683C398.635 94.1061 399.607 95.0718 400.253 96.2493C400.933 97.5156 401.274 98.9356 401.245 100.372C401.278 101.799 400.929 103.209 400.234 104.456C399.563 105.62 398.57 106.566 397.375 107.179C396.057 107.848 394.594 108.182 393.116 108.151H386.27C386.249 108.148 386.227 108.15 386.207 108.157C386.187 108.164 386.168 108.175 386.153 108.19C386.138 108.206 386.127 108.224 386.12 108.244C386.113 108.265 386.111 108.286 386.114 108.307V119.353C386.122 119.406 386.117 119.46 386.1 119.511C386.083 119.561 386.055 119.607 386.017 119.645C385.979 119.683 385.933 119.711 385.882 119.728C385.832 119.745 385.778 119.75 385.725 119.742H382.769C382.716 119.75 382.662 119.745 382.612 119.728C382.561 119.711 382.515 119.683 382.477 119.645C382.44 119.607 382.411 119.561 382.394 119.511C382.377 119.46 382.373 119.406 382.38 119.353V92.8653C382.373 92.8125 382.377 92.7586 382.394 92.708C382.411 92.6574 382.44 92.6114 382.477 92.5737C382.515 92.5359 382.561 92.5075 382.612 92.4906C382.662 92.4737 382.716 92.4688 382.769 92.4764H393.272ZM392.766 105.117C393.397 105.146 394.027 105.047 394.618 104.826C395.209 104.606 395.75 104.268 396.208 103.833C396.646 103.389 396.987 102.859 397.211 102.277C397.434 101.695 397.536 101.072 397.508 100.449C397.537 99.8174 397.436 99.1862 397.213 98.5944C396.989 98.0026 396.647 97.4626 396.208 97.0073C395.753 96.5681 395.213 96.2262 394.621 96.0027C394.029 95.7792 393.398 95.6787 392.766 95.7073H386.266C386.245 95.7043 386.223 95.7063 386.203 95.7131C386.183 95.7199 386.164 95.7313 386.149 95.7464C386.134 95.7615 386.123 95.78 386.116 95.8003C386.109 95.8206 386.107 95.8422 386.11 95.8633V104.963C386.107 104.985 386.109 105.006 386.116 105.026C386.123 105.047 386.134 105.065 386.149 105.08C386.164 105.095 386.183 105.107 386.203 105.114C386.223 105.12 386.245 105.122 386.266 105.119L392.766 105.117ZM438.546 119.742C438.455 119.749 438.364 119.726 438.287 119.677C438.21 119.628 438.151 119.555 438.118 119.47L432.673 107.84C432.665 107.806 432.645 107.775 432.616 107.754C432.588 107.732 432.553 107.722 432.517 107.723H426.917C426.896 107.72 426.874 107.722 426.854 107.729C426.834 107.736 426.815 107.747 426.8 107.762C426.785 107.778 426.774 107.796 426.767 107.816C426.76 107.837 426.758 107.858 426.761 107.879V119.353C426.769 119.406 426.764 119.46 426.747 119.511C426.73 119.561 426.702 119.607 426.664 119.645C426.626 119.683 426.58 119.711 426.529 119.728C426.479 119.745 426.425 119.75 426.372 119.742H423.416C423.363 119.75 423.309 119.745 423.259 119.728C423.208 119.711 423.162 119.683 423.124 119.645C423.087 119.607 423.058 119.561 423.041 119.511C423.025 119.46 423.02 119.406 423.027 119.353V92.9043C423.02 92.8515 423.025 92.7976 423.041 92.747C423.058 92.6964 423.087 92.6504 423.124 92.6127C423.162 92.5749 423.208 92.5465 423.259 92.5296C423.309 92.5127 423.363 92.5078 423.416 92.5154H433.879C435.306 92.4851 436.718 92.8196 437.979 93.4874C439.136 94.1127 440.088 95.0581 440.721 96.2103C441.388 97.4526 441.723 98.8458 441.693 100.255C441.744 101.907 441.245 103.528 440.273 104.864C439.292 106.145 437.897 107.046 436.325 107.412C436.221 107.464 436.195 107.529 436.247 107.606L441.887 119.275C441.915 119.336 441.928 119.403 441.926 119.469C441.926 119.651 441.823 119.741 441.615 119.741L438.546 119.742ZM426.916 95.7423C426.895 95.7393 426.873 95.7413 426.853 95.7481C426.833 95.7549 426.814 95.7663 426.799 95.7814C426.784 95.7965 426.773 95.815 426.766 95.8353C426.759 95.8556 426.757 95.8772 426.76 95.8983V104.611C426.757 104.633 426.759 104.654 426.766 104.674C426.773 104.695 426.784 104.713 426.799 104.728C426.814 104.743 426.833 104.755 426.853 104.762C426.873 104.768 426.895 104.77 426.916 104.767H433.416C434.021 104.796 434.626 104.702 435.194 104.491C435.762 104.281 436.282 103.958 436.722 103.542C437.142 103.116 437.469 102.607 437.683 102.048C437.897 101.489 437.994 100.892 437.967 100.294C437.995 99.6876 437.899 99.0815 437.685 98.5131C437.471 97.9447 437.143 97.4259 436.722 96.9883C436.285 96.5671 435.766 96.2394 435.197 96.0253C434.629 95.8113 434.023 95.7153 433.416 95.7434L426.916 95.7423ZM464.606 119.742C464.553 119.75 464.499 119.745 464.449 119.728C464.398 119.711 464.352 119.683 464.315 119.645C464.277 119.607 464.248 119.561 464.231 119.511C464.215 119.46 464.21 119.406 464.217 119.353V92.9043C464.21 92.8515 464.215 92.7976 464.231 92.747C464.248 92.6964 464.277 92.6504 464.315 92.6127C464.352 92.5749 464.398 92.5465 464.449 92.5296C464.499 92.5127 464.553 92.5078 464.606 92.5154H467.562C467.615 92.5078 467.669 92.5127 467.719 92.5296C467.77 92.5465 467.816 92.5749 467.854 92.6127C467.892 92.6504 467.92 92.6964 467.937 92.747C467.954 92.7976 467.959 92.8515 467.951 92.9043V119.353C467.959 119.406 467.954 119.46 467.937 119.511C467.92 119.561 467.892 119.607 467.854 119.645C467.816 119.683 467.77 119.711 467.719 119.728C467.669 119.745 467.615 119.75 467.562 119.742H464.606ZM500.079 120.053C498.303 120.094 496.537 119.777 494.886 119.12C493.527 118.582 492.352 117.663 491.501 116.473C490.699 115.294 490.284 113.894 490.315 112.467V111.339C490.308 111.287 490.312 111.233 490.329 111.182C490.346 111.131 490.375 111.085 490.412 111.048C490.45 111.01 490.496 110.982 490.547 110.965C490.597 110.948 490.651 110.943 490.704 110.95H493.543C493.596 110.943 493.65 110.948 493.7 110.965C493.751 110.982 493.797 111.01 493.835 111.048C493.873 111.085 493.901 111.131 493.918 111.182C493.935 111.233 493.94 111.287 493.932 111.339V112.272C493.928 112.915 494.081 113.55 494.38 114.119C494.678 114.689 495.112 115.177 495.643 115.539C497.031 116.467 498.683 116.918 500.349 116.823C501.787 116.928 503.217 116.529 504.394 115.695C504.834 115.341 505.186 114.89 505.422 114.377C505.658 113.864 505.772 113.304 505.755 112.739C505.774 111.991 505.526 111.26 505.055 110.678C504.483 110.026 503.79 109.491 503.013 109.103C501.743 108.455 500.438 107.878 499.104 107.372C497.567 106.805 496.067 106.142 494.612 105.388C493.537 104.815 492.6 104.011 491.87 103.035C491.113 101.963 490.73 100.671 490.781 99.3593C490.736 98.3573 490.93 97.359 491.346 96.4462C491.762 95.5334 492.388 94.7322 493.173 94.1083C495.05 92.7497 497.336 92.0769 499.649 92.2023C501.384 92.166 503.107 92.4973 504.705 93.1744C506.062 93.7451 507.228 94.6894 508.069 95.8973C508.869 97.0928 509.282 98.5045 509.255 99.9423V100.72C509.263 100.773 509.258 100.827 509.241 100.878C509.224 100.928 509.196 100.974 509.158 101.012C509.12 101.05 509.074 101.078 509.023 101.095C508.973 101.112 508.919 101.117 508.866 101.109H505.949C505.896 101.117 505.842 101.112 505.792 101.095C505.741 101.078 505.695 101.05 505.658 101.012C505.62 100.974 505.591 100.928 505.574 100.878C505.558 100.827 505.553 100.773 505.56 100.72V100.137C505.569 99.4902 505.427 98.8498 505.147 98.2663C504.867 97.6827 504.456 97.1718 503.946 96.7733C502.667 95.8137 501.089 95.3382 499.493 95.4313C498.174 95.3502 496.864 95.6982 495.759 96.4233C495.322 96.7554 494.973 97.1897 494.742 97.6882C494.512 98.1866 494.407 98.734 494.437 99.2824C494.405 100.038 494.639 100.781 495.098 101.382C495.64 102.004 496.31 102.502 497.062 102.841C497.929 103.269 499.258 103.82 501.049 104.494C502.576 105.078 504.069 105.745 505.522 106.494C506.634 107.08 507.604 107.903 508.361 108.906C509.138 109.985 509.535 111.292 509.489 112.621C509.529 113.66 509.323 114.693 508.887 115.636C508.451 116.579 507.797 117.405 506.98 118.047C504.978 119.486 502.543 120.194 500.081 120.054L500.079 120.053ZM549.979 95.3534C549.987 95.4062 549.982 95.46 549.965 95.5107C549.948 95.5613 549.92 95.6073 549.882 95.645C549.844 95.6828 549.798 95.7112 549.747 95.7281C549.697 95.745 549.643 95.7499 549.59 95.7423H535.782C535.761 95.7393 535.739 95.7413 535.719 95.7481C535.699 95.7549 535.68 95.7663 535.665 95.7814C535.65 95.7965 535.639 95.815 535.632 95.8353C535.625 95.8556 535.623 95.8772 535.626 95.8983V104.26C535.623 104.282 535.625 104.303 535.632 104.323C535.639 104.344 535.65 104.362 535.665 104.377C535.68 104.392 535.699 104.404 535.719 104.411C535.739 104.417 535.761 104.419 535.782 104.416H545.272C545.325 104.409 545.379 104.414 545.429 104.431C545.48 104.447 545.526 104.476 545.564 104.514C545.602 104.551 545.63 104.597 545.647 104.648C545.664 104.699 545.669 104.753 545.661 104.805V107.255C545.669 107.308 545.664 107.362 545.647 107.413C545.63 107.463 545.602 107.509 545.564 107.547C545.526 107.585 545.48 107.613 545.429 107.63C545.379 107.647 545.325 107.652 545.272 107.644H535.782C535.761 107.641 535.739 107.643 535.719 107.65C535.699 107.657 535.68 107.668 535.665 107.683C535.65 107.699 535.639 107.717 535.632 107.737C535.625 107.758 535.623 107.779 535.626 107.8V116.357C535.623 116.379 535.625 116.4 535.632 116.42C535.639 116.441 535.65 116.459 535.665 116.474C535.68 116.489 535.699 116.501 535.719 116.508C535.739 116.514 535.761 116.516 535.782 116.513H549.59C549.643 116.506 549.697 116.511 549.747 116.528C549.798 116.545 549.844 116.573 549.882 116.611C549.92 116.648 549.948 116.694 549.965 116.745C549.982 116.796 549.987 116.85 549.979 116.902V119.352C549.987 119.405 549.982 119.459 549.965 119.51C549.948 119.56 549.92 119.606 549.882 119.644C549.844 119.682 549.798 119.71 549.747 119.727C549.697 119.744 549.643 119.749 549.59 119.741H532.282C532.229 119.749 532.175 119.744 532.125 119.727C532.074 119.71 532.028 119.682 531.99 119.644C531.953 119.606 531.924 119.56 531.907 119.51C531.89 119.459 531.886 119.405 531.893 119.352V92.9033C531.886 92.8505 531.89 92.7967 531.907 92.746C531.924 92.6954 531.953 92.6494 531.99 92.6117C532.028 92.5739 532.074 92.5455 532.125 92.5286C532.175 92.5117 532.229 92.5068 532.282 92.5143H549.59C549.643 92.5068 549.697 92.5117 549.747 92.5286C549.798 92.5455 549.844 92.5739 549.882 92.6117C549.92 92.6494 549.948 92.6954 549.965 92.746C549.982 92.7967 549.987 92.8505 549.979 92.9033V95.3534Z" fill="white"/>
<path d="M169.965 73.9031C169.798 73.9287 169.628 73.9183 169.466 73.8726C169.304 73.8269 169.153 73.7469 169.025 73.6381C168.896 73.5293 168.792 73.3942 168.72 73.2419C168.648 73.0895 168.61 72.9235 168.608 72.7551L166.938 62.7341C166.938 62.3861 166.729 62.2121 166.312 62.2121H153.055C152.637 62.2121 152.429 62.3861 152.429 62.7341L150.759 72.7551C150.756 72.9235 150.718 73.0895 150.646 73.2419C150.574 73.3942 150.47 73.5293 150.342 73.6381C150.213 73.7469 150.062 73.8269 149.9 73.8726C149.738 73.9183 149.568 73.9287 149.402 73.9031H137.189C136.284 73.9031 135.936 73.4507 136.145 72.5461L151.489 1.98407C151.501 1.81926 151.547 1.65865 151.622 1.51151C151.697 1.36436 151.801 1.23363 151.927 1.12686C152.054 1.02009 152.2 0.939407 152.357 0.889496C152.515 0.839585 152.681 0.82144 152.846 0.83609H166.938C167.102 0.82144 167.268 0.839585 167.426 0.889496C167.583 0.939407 167.729 1.02009 167.856 1.12686C167.982 1.23363 168.086 1.36436 168.161 1.51151C168.236 1.65865 168.282 1.81926 168.295 1.98407L183.535 72.5461L183.635 72.9641C183.635 73.5901 183.252 73.9031 182.487 73.9031H169.965ZM154.518 50.3081C154.518 50.6561 154.657 50.8301 154.936 50.8301H164.328C164.676 50.8301 164.815 50.6561 164.746 50.3081L159.84 21.8081C159.773 21.5994 159.669 21.4951 159.527 21.4951C159.385 21.4951 159.28 21.5994 159.214 21.8081L154.518 50.3081ZM209.943 74.7381C203.68 74.7381 198.652 72.9461 194.86 69.3621C191.067 65.7781 189.171 60.9934 189.171 55.0081V19.7281C189.171 13.7434 191.067 8.95909 194.86 5.37509C198.652 1.79109 203.68 -0.000915525 209.943 -0.000915525C216.205 -0.000915525 221.25 1.80843 225.078 5.42709C228.905 9.04576 230.819 13.8458 230.819 19.8271V23.7941C230.822 23.959 230.791 24.1228 230.728 24.2754C230.665 24.4279 230.572 24.566 230.454 24.6811C230.338 24.7993 230.2 24.8926 230.048 24.9554C229.895 25.0182 229.732 25.049 229.567 25.0461H217.354C217.189 25.049 217.025 25.0182 216.872 24.9554C216.72 24.8926 216.582 24.7993 216.467 24.6811C216.348 24.566 216.255 24.4279 216.192 24.2754C216.129 24.1228 216.099 23.959 216.102 23.7941V19.6191C216.187 17.7834 215.593 15.9806 214.432 14.5561C213.876 13.9179 213.185 13.413 212.408 13.0787C211.631 12.7444 210.789 12.5894 209.944 12.6251C209.115 12.5967 208.29 12.7555 207.531 13.0898C206.772 13.4241 206.098 13.9253 205.56 14.5561C204.399 15.9806 203.804 17.7834 203.89 19.6191V55.1091C203.804 56.9448 204.399 58.7476 205.56 60.1721C206.098 60.8028 206.772 61.304 207.531 61.6383C208.29 61.9727 209.115 62.1315 209.944 62.1031C210.789 62.1388 211.631 61.9838 212.408 61.6495C213.185 61.3152 213.876 60.8102 214.432 60.1721C215.592 58.7478 216.187 56.9454 216.102 55.1101V46.7591C216.112 46.6882 216.105 46.6158 216.083 46.5479C216.06 46.4799 216.022 46.4181 215.971 46.3674C215.921 46.3167 215.859 46.2786 215.791 46.256C215.723 46.2333 215.65 46.2269 215.58 46.2371H210.987C210.822 46.24 210.658 46.2092 210.505 46.1464C210.353 46.0836 210.215 45.9902 210.1 45.8721C209.981 45.757 209.888 45.6189 209.825 45.4664C209.762 45.3138 209.732 45.15 209.735 44.9851V35.6951C209.732 35.5301 209.762 35.3664 209.825 35.2138C209.888 35.0613 209.981 34.9232 210.1 34.8081C210.215 34.6899 210.353 34.5966 210.505 34.5338C210.658 34.471 210.822 34.4401 210.987 34.4431H229.567C229.732 34.4401 229.895 34.471 230.048 34.5338C230.2 34.5966 230.338 34.6899 230.454 34.8081C230.572 34.9232 230.665 35.0613 230.728 35.2138C230.791 35.3664 230.822 35.5301 230.819 35.6951V55.0081C230.819 60.9928 228.905 65.7771 225.078 69.3611C221.25 72.9451 216.205 74.7374 209.943 74.7381ZM270.38 73.9031C270.051 73.933 269.723 73.8441 269.455 73.6525C269.187 73.4609 268.997 73.1793 268.919 72.8591L260.882 44.0501C260.742 43.7714 260.568 43.6321 260.36 43.6321H256.811C256.74 43.6219 256.667 43.6283 256.599 43.6509C256.531 43.6736 256.47 43.7117 256.419 43.7624C256.368 43.8131 256.33 43.8749 256.307 43.9428C256.285 44.0108 256.278 44.0832 256.289 44.1541V72.6541C256.292 72.819 256.261 72.9828 256.198 73.1353C256.135 73.2879 256.042 73.426 255.924 73.5411C255.808 73.6593 255.67 73.7526 255.518 73.8154C255.365 73.8782 255.202 73.909 255.037 73.9061H242.823C242.658 73.909 242.494 73.8782 242.341 73.8154C242.189 73.7526 242.051 73.6593 241.936 73.5411C241.817 73.426 241.724 73.2879 241.661 73.1353C241.598 72.9828 241.568 72.819 241.571 72.6541V2.08807C241.568 1.92314 241.598 1.75936 241.661 1.60681C241.724 1.45426 241.817 1.31617 241.936 1.20108C242.051 1.0829 242.189 0.989533 242.341 0.926758C242.494 0.863983 242.658 0.833142 242.823 0.83609H263.908C267.51 0.774893 271.056 1.73379 274.137 3.60208C277.151 5.47088 279.562 8.17124 281.078 11.3781C282.767 14.9659 283.607 18.895 283.531 22.8601C283.608 26.6128 282.804 30.3313 281.182 33.7161C279.735 36.715 277.474 39.2469 274.658 41.0231C274.532 41.0811 274.424 41.1711 274.345 41.2841C274.31 41.3388 274.292 41.402 274.292 41.4666C274.292 41.5311 274.31 41.5944 274.345 41.6491L283.945 72.4421L284.045 72.8591C284.045 73.5551 283.662 73.9031 282.897 73.9031H270.38ZM256.81 13.4661C256.739 13.4559 256.666 13.4623 256.598 13.485C256.53 13.5076 256.469 13.5457 256.418 13.5964C256.367 13.6471 256.329 13.7088 256.306 13.7768C256.284 13.8448 256.277 13.9171 256.288 13.9881V31.8371C256.277 31.908 256.284 31.9803 256.306 32.0483C256.329 32.1163 256.367 32.1781 256.418 32.2288C256.469 32.2794 256.53 32.3176 256.598 32.3402C256.666 32.3628 256.739 32.3693 256.81 32.3591H261.51C262.528 32.3809 263.537 32.1604 264.453 31.7159C265.37 31.2713 266.167 30.6154 266.781 29.8021C268.223 27.8241 268.942 25.4101 268.816 22.9651C268.951 20.4867 268.233 18.0367 266.781 16.0241C266.167 15.2108 265.37 14.5549 264.453 14.1103C263.537 13.6657 262.528 13.4453 261.51 13.4671L256.81 13.4661ZM313.385 74.7381C306.985 74.7381 301.87 72.8591 298.041 69.1011C294.211 65.3431 292.298 60.3327 292.3 54.0701V20.6701C292.3 14.4074 294.213 9.39707 298.041 5.63907C301.868 1.88107 306.983 0.0020752 313.385 0.0020752C319.785 0.0020752 324.918 1.88107 328.785 5.63907C332.651 9.39707 334.582 14.4074 334.578 20.6701V54.0701C334.578 60.3327 332.647 65.3431 328.785 69.1011C324.923 72.8591 319.789 74.7381 313.385 74.7381ZM313.385 62.1081C314.27 62.142 315.152 61.9767 315.966 61.6245C316.779 61.2724 317.503 60.7422 318.085 60.0731C319.321 58.5623 319.953 56.6469 319.859 54.6971V20.0421C319.953 18.0923 319.321 16.1768 318.085 14.6661C317.503 13.997 316.779 13.4668 315.966 13.1146C315.152 12.7624 314.27 12.5972 313.385 12.6311C312.506 12.5942 311.632 12.7583 310.827 13.111C310.022 13.4637 309.308 13.9956 308.74 14.6661C307.535 16.1909 306.923 18.1002 307.018 20.0411V54.6961C306.923 56.6373 307.535 58.547 308.74 60.0721C309.308 60.7429 310.022 61.275 310.827 61.6279C311.632 61.9808 312.506 62.145 313.385 62.1081ZM387.285 53.7571C387.285 60.2291 385.336 65.2048 381.44 68.6841C377.543 72.1634 372.498 73.9031 366.305 73.9031H346.579C346.414 73.906 346.25 73.8752 346.097 73.8124C345.945 73.7496 345.807 73.6563 345.692 73.5381C345.573 73.423 345.48 73.2849 345.417 73.1324C345.354 72.9798 345.324 72.816 345.327 72.6511V2.08807C345.324 1.92314 345.354 1.75936 345.417 1.60681C345.48 1.45426 345.573 1.31617 345.692 1.20108C345.807 1.0829 345.945 0.989533 346.097 0.926758C346.25 0.863983 346.414 0.833142 346.579 0.83609H364.011C370.969 0.83609 376.415 2.50607 380.347 5.84607C384.279 9.18607 386.245 14.1617 386.247 20.7731C386.247 27.6624 383.88 32.6727 379.147 35.8041C378.868 36.0127 378.835 36.2214 379.047 36.4301C384.541 40.3268 387.289 46.1024 387.289 53.7571H387.285ZM360.563 13.4651C360.492 13.4549 360.419 13.4613 360.351 13.4839C360.283 13.5066 360.222 13.5447 360.171 13.5954C360.12 13.6461 360.082 13.7079 360.059 13.7758C360.037 13.8438 360.03 13.9162 360.041 13.9871V30.3751C360.03 30.446 360.037 30.5183 360.059 30.5863C360.082 30.6543 360.12 30.7161 360.171 30.7668C360.222 30.8174 360.283 30.8556 360.351 30.8782C360.419 30.9008 360.492 30.9073 360.563 30.8971H364.321C365.351 30.954 366.381 30.7823 367.338 30.3944C368.294 30.0064 369.153 29.4118 369.853 28.6531C371.272 26.866 371.979 24.6159 371.836 22.3381C371.836 19.4847 371.192 17.2928 369.905 15.7621C369.21 14.9796 368.346 14.3658 367.378 13.9673C366.411 13.5688 365.365 13.396 364.321 13.4621L360.563 13.4651ZM365.156 61.1651C366.194 61.2085 367.228 61.0039 368.172 60.5683C369.116 60.1327 369.943 59.4786 370.584 58.6601C371.906 56.9901 372.567 54.6234 372.567 51.5601C372.702 48.9752 372.007 46.4148 370.584 44.2531C369.993 43.3929 369.196 42.6941 368.266 42.2202C367.336 41.7462 366.303 41.5121 365.26 41.5391H360.56C360.489 41.5289 360.416 41.5353 360.348 41.558C360.28 41.5806 360.219 41.6187 360.168 41.6694C360.117 41.7201 360.079 41.7819 360.056 41.8499C360.034 41.9178 360.027 41.9902 360.038 42.0611V60.6411C360.027 60.712 360.034 60.7843 360.056 60.8523C360.079 60.9203 360.117 60.9821 360.168 61.0328C360.219 61.0834 360.28 61.1216 360.348 61.1442C360.416 61.1668 360.489 61.1733 360.56 61.1631L365.156 61.1651ZM425.802 73.9001C425.473 73.9301 425.145 73.8411 424.877 73.6495C424.609 73.4579 424.419 73.1763 424.341 72.8561L416.304 44.0471C416.164 43.7684 415.99 43.6291 415.782 43.6291H412.233C412.162 43.6189 412.089 43.6253 412.021 43.6479C411.953 43.6706 411.892 43.7087 411.841 43.7594C411.79 43.8101 411.752 43.8719 411.729 43.9398C411.707 44.0078 411.7 44.0802 411.711 44.1511V72.6511C411.714 72.816 411.683 72.9798 411.62 73.1324C411.557 73.2849 411.464 73.423 411.346 73.5381C411.231 73.6563 411.092 73.7496 410.94 73.8124C410.787 73.8752 410.624 73.906 410.459 73.9031H398.249C398.084 73.906 397.92 73.8752 397.767 73.8124C397.615 73.7496 397.477 73.6563 397.362 73.5381C397.243 73.423 397.15 73.2849 397.087 73.1324C397.025 72.9798 396.994 72.816 396.997 72.6511V2.08807C396.994 1.92314 397.025 1.75936 397.087 1.60681C397.15 1.45426 397.243 1.31617 397.362 1.20108C397.477 1.0829 397.615 0.989533 397.767 0.926758C397.92 0.863983 398.084 0.833142 398.249 0.83609H419.334C422.936 0.774893 426.482 1.73379 429.563 3.60208C432.577 5.47088 434.988 8.17124 436.504 11.3781C438.193 14.9659 439.033 18.895 438.957 22.8601C439.034 26.6128 438.23 30.3313 436.608 33.7161C435.161 36.715 432.9 39.2469 430.084 41.0231C429.958 41.0811 429.85 41.1711 429.771 41.2841C429.736 41.3388 429.718 41.402 429.718 41.4666C429.718 41.5311 429.736 41.5944 429.771 41.6491L439.371 72.4421L439.471 72.8591C439.471 73.5551 439.088 73.9031 438.323 73.9031L425.802 73.9001ZM412.232 13.4631C412.161 13.4529 412.088 13.4593 412.02 13.482C411.952 13.5046 411.891 13.5427 411.84 13.5934C411.789 13.6441 411.751 13.7058 411.728 13.7738C411.706 13.8418 411.699 13.9142 411.71 13.9851V31.8341C411.699 31.905 411.706 31.9773 411.728 32.0453C411.751 32.1133 411.789 32.1751 411.84 32.2258C411.891 32.2764 411.952 32.3146 412.02 32.3372C412.088 32.3598 412.161 32.3663 412.232 32.3561H416.932C417.95 32.3779 418.959 32.1574 419.875 31.7129C420.792 31.2683 421.589 30.6124 422.203 29.7991C423.645 27.8211 424.364 25.4071 424.238 22.9621C424.373 20.4837 423.655 18.0337 422.203 16.0211C421.589 15.2078 420.792 14.5519 419.875 14.1073C418.959 13.6627 417.95 13.4423 416.932 13.4641L412.232 13.4631ZM479.976 73.9001C479.809 73.9257 479.639 73.9153 479.477 73.8696C479.315 73.8239 479.164 73.7439 479.036 73.6351C478.907 73.5263 478.803 73.3912 478.731 73.2389C478.659 73.0865 478.621 72.9205 478.619 72.7521L476.949 62.7311C476.949 62.3831 476.74 62.2091 476.323 62.2091H463.07C462.652 62.2091 462.444 62.3831 462.444 62.7311L460.774 72.7521C460.771 72.9205 460.733 73.0865 460.661 73.2389C460.589 73.3912 460.485 73.5263 460.357 73.6351C460.228 73.7439 460.077 73.8239 459.915 73.8696C459.753 73.9153 459.583 73.9257 459.417 73.9001H447.204C446.299 73.9001 445.951 73.4478 446.16 72.5431L461.504 1.98108C461.516 1.81627 461.562 1.65566 461.637 1.50851C461.713 1.36137 461.816 1.23061 461.942 1.12384C462.069 1.01707 462.215 0.936416 462.372 0.886505C462.53 0.836594 462.696 0.818419 462.861 0.833069H476.953C477.117 0.818419 477.283 0.836594 477.441 0.886505C477.598 0.936416 477.745 1.01707 477.871 1.12384C477.997 1.23061 478.101 1.36137 478.176 1.50851C478.251 1.65566 478.297 1.81627 478.31 1.98108L493.55 72.5431L493.65 72.9611C493.65 73.5871 493.267 73.9001 492.502 73.9001H479.976ZM464.531 50.3081C464.531 50.6561 464.67 50.8301 464.949 50.8301H474.343C474.691 50.8301 474.83 50.6561 474.761 50.3081L469.855 21.8081C469.788 21.5994 469.684 21.4951 469.542 21.4951C469.4 21.4951 469.295 21.5994 469.229 21.8081L464.531 50.3081ZM508.372 73.8981C508.207 73.9123 508.042 73.894 507.885 73.8441C507.728 73.7943 507.583 73.7139 507.457 73.6076C507.331 73.5013 507.227 73.3711 507.152 73.2247C507.077 73.0782 507.031 72.9183 507.018 72.7541L492.088 2.19208L491.988 1.77509C491.988 1.14909 492.37 0.83609 493.136 0.83609H506.601C506.767 0.810475 506.937 0.82087 507.099 0.866577C507.261 0.912285 507.412 0.992236 507.541 1.10104C507.669 1.20985 507.773 1.34498 507.845 1.49731C507.917 1.64965 507.955 1.81562 507.958 1.98407L515.158 47.9121C515.224 48.1907 515.329 48.3301 515.471 48.3301C515.613 48.3301 515.717 48.1907 515.784 47.9121L522.778 1.98407C522.78 1.81562 522.818 1.64965 522.89 1.49731C522.962 1.34498 523.066 1.20985 523.195 1.10104C523.323 0.992236 523.474 0.912285 523.636 0.866577C523.798 0.82087 523.968 0.810475 524.135 0.83609H537.183C538.087 0.83609 538.435 1.28842 538.227 2.19308L523.196 72.7551C523.183 72.9199 523.137 73.0805 523.062 73.2277C522.987 73.3748 522.883 73.5055 522.757 73.6123C522.631 73.7191 522.484 73.7998 522.327 73.8497C522.169 73.8996 522.003 73.9177 521.839 73.9031L508.372 73.8981ZM566.095 74.7331C559.695 74.7331 554.58 72.8541 550.751 69.0961C546.921 65.3381 545.008 60.3278 545.01 54.0651V20.6651C545.01 14.4024 546.923 9.39209 550.751 5.63409C554.578 1.87609 559.693 -0.00292969 566.095 -0.00292969C572.495 -0.00292969 577.628 1.87609 581.495 5.63409C585.361 9.39209 587.292 14.4024 587.288 20.6651V54.0651C587.288 60.3278 585.357 65.3381 581.495 69.0961C577.633 72.8541 572.499 74.7347 566.095 74.7381V74.7331ZM566.095 62.1031C566.98 62.137 567.862 61.9718 568.676 61.6196C569.489 61.2674 570.213 60.7372 570.795 60.0681C572.031 58.5575 572.664 56.642 572.57 54.6921V20.0371C572.664 18.0872 572.031 16.1717 570.795 14.6611C570.213 13.992 569.489 13.4618 568.676 13.1096C567.862 12.7574 566.98 12.5922 566.095 12.6261C565.216 12.5892 564.342 12.7533 563.537 13.106C562.732 13.4587 562.018 13.9906 561.45 14.6611C560.245 16.1861 559.633 18.0959 559.728 20.0371V54.6921C559.633 56.6333 560.245 58.543 561.45 60.0681C562.017 60.7395 562.731 61.2723 563.536 61.6259C564.341 61.9794 565.216 62.1444 566.095 62.1081V62.1031Z" fill="white"/>
<path d="M118.265 56.1689C109.281 52.4707 99.9686 49.6279 90.451 47.6787C80.1458 45.5775 69.6551 44.52 59.138 44.5225C48.6201 44.5196 38.1288 45.5772 27.823 47.6787C18.3025 49.6282 8.98699 52.471 0 56.1689V5.10059C-1.164e-06 4.01424 0.431129 2.97283 1.19873 2.2041C1.96634 1.43537 3.00765 1.00257 4.094 1.00098H114.168C115.254 1.00257 116.296 1.43537 117.063 2.2041C117.831 2.97283 118.262 4.01424 118.262 5.10059V56.1709L118.265 56.1689ZM24.7881 11.5L21.106 21.3369L10.626 21.8037L18.8321 28.3496L16.032 38.4766L24.784 32.6846L33.5359 38.4766L30.7361 28.3496L38.9419 21.8037L28.4619 21.3369L24.7881 11.5ZM83.232 21.8389L81.888 25.6094L78.062 25.79L81.0559 28.2979L80.0381 32.1797L83.231 29.9619L86.4251 32.1797L85.407 28.2979L88.4009 25.79L84.575 25.6094L83.232 21.8389ZM58.5049 11.5L56.2261 17.7295L49.739 18.0293L54.8191 22.1748L53.0891 28.5859L58.5049 24.9209L63.9241 28.5859L62.1941 22.1748L67.2739 18.0293L60.7849 17.7295L58.5049 11.5ZM104.362 11.9473L103.018 15.5537L99.1919 15.7256L102.186 18.126L101.165 21.8379L104.365 19.7168L107.559 21.8379L106.538 18.126L109.538 15.7256L105.712 15.5537L104.362 11.9473Z" fill="white"/>
<path d="M114.171 119.137H69.632C80.8233 109.757 93.3477 102.095 106.794 96.4019C110.542 94.8169 114.401 93.3729 118.266 92.1079V115.041C118.265 116.127 117.833 117.168 117.066 117.936C116.298 118.704 115.257 119.136 114.171 119.137ZM57.318 119.137H4.1C3.01262 119.137 1.96976 118.705 1.20087 117.936C0.431963 117.167 0 116.124 0 115.037V104.05C1.309 103.101 2.645 102.166 3.972 101.27C20.2296 90.3319 38.5023 82.7404 57.7245 78.938C76.9466 75.1356 96.7334 75.1984 115.931 79.1229C116.722 79.2849 117.507 79.4529 118.265 79.6229V83.5169C103.684 88.0095 89.8491 94.6378 77.211 103.186C70.1578 107.954 63.5048 113.288 57.318 119.137ZM0 94.0679V64.9409C0.626 64.6659 1.245 64.3999 1.84 64.1479C10.7444 60.384 19.9995 57.511 29.47 55.5709C49.0451 51.5845 69.2229 51.5845 88.798 55.5709C98.2681 57.5112 107.523 60.3842 116.427 64.1479C117.027 64.3999 117.641 64.6669 118.266 64.9409V71.2409L117.583 71.0999C96.9188 66.8915 75.6183 66.8915 54.954 71.0999C35.32 75.1196 16.6554 82.9212 0 94.0679Z" fill="white"/>
</g>
<defs>
<clipPath id="clip0_187_6">
<rect width="588" height="121" fill="white"/>
</clipPath>
</defs>
</svg>
